<svg xmlns="http://www.w3.org/2000/svg" width="1600" height="900" viewBox="0 0 1600 900"><style>.bg{fill:#071018}.box{fill:#102534;stroke:#54d6ff;stroke-width:2}.ai{fill:#2a1f10;stroke:#ffbd4a;stroke-width:3}.out{fill:#14221c;stroke:#6cff9c;stroke-width:2}.t{fill:#edf8ff;font:24px sans-serif}.s{fill:#b6d6e5;font:17px sans-serif}.line{stroke:#54d6ff;stroke-width:4;fill:none}</style><rect class="bg" width="1600" height="900"/><text class="t" x="60" y="55">ATHENA REALITY-TO-SIMULATION / MATERIAL INTELLIGENCE STACK</text><rect class="box" x="50" y="110" width="330" height="610" rx="20"/><text class="t" x="75" y="150">Parallel Sensor Fabric</text><text class="s" x="80" y="205">RGB • UV • Full-spectrum • NIR • SWIR</text><text class="s" x="80" y="250">MWIR • LWIR • Night Vision</text><text class="s" x="80" y="295">Hyperspectral • Dicyanin/reference</text><text class="s" x="80" y="340">LiDAR • depth • polarisation</text><text class="s" x="80" y="385">RF • UWB • mmWave • sub-THz</text><text class="s" x="80" y="430">THz TDS • acoustic • environment</text><rect class="box" x="470" y="110" width="300" height="610" rx="20"/><text class="t" x="500" y="150">Specialist AIs</text><text class="s" x="500" y="220">Native calibration</text><text class="s" x="500" y="265">Independent interpretation</text><text class="s" x="500" y="310">Feature and confidence maps</text><text class="s" x="500" y="355">Measured / derived / inferred</text><text class="s" x="500" y="400">Raw evidence provenance</text><rect class="ai" x="855" y="250" width="300" height="330" rx="28"/><text class="t" x="915" y="305">Fusion AI</text><text class="s" x="890" y="360">Cross-band registration</text><text class="s" x="890" y="405">Domain-weighted confidence</text><text class="s" x="890" y="450">Contradiction preservation</text><text class="s" x="890" y="495">3D object/material model</text><rect class="out" x="1240" y="80" width="310" height="720" rx="20"/><text class="t" x="1280" y="125">Outputs</text><text class="s" x="1270" y="190">Independent + fused views</text><text class="s" x="1270" y="235">Material identity / condition</text><text class="s" x="1270" y="280">Known Behavioral Maps</text><text class="s" x="1270" y="325">Material Behavioral Atlas</text><text class="s" x="1270" y="370">OASIS physical twin</text><text class="s" x="1270" y="415">Engineering simulation</text><text class="s" x="1270" y="460">Inverse design / composites</text><text class="s" x="1270" y="505">Lithography control</text><text class="s" x="1270" y="550">L.O.D.E / RoomSense overlay</text><path class="line" d="M380 415 L470 415"/><path class="line" d="M770 415 L855 415"/><path class="line" d="M1155 415 L1240 415"/><text class="s" x="50" y="845">Capture independently • calibrate • preserve provenance • fuse adaptively • never promote inference to measurement.</text></svg>
